<?xml version="1.0" encoding="UTF-8"?>
<svg width="65px" height="65px" viewBox="0 0 65 65" version="1.1" xmlns="http://www.w3.org/2000/svg" xmlns:xlink="http://www.w3.org/1999/xlink">
    <title>assistantNameIcon</title>
    <g id="Page-1" stroke="none" stroke-width="1" fill="none" fill-rule="evenodd">
        <g id="Artboard" transform="translate(-107.000000, -4.000000)" fill="#FFFFFF">
            <g id="assistantNameIcon" transform="translate(107.000000, 4.000000)">
                <path d="M33.676569,22.5678469 C34.5505818,23.9215114 36.5664709,26.0642481 40.6445636,26.4284154 C39.4311418,30.0195741 36.0245225,32.616081 32.014951,32.616081 C27.1537463,32.616081 23.1814164,28.8035354 22.9283027,24.0244302 C25.0938757,24.4922034 30.8581261,25.396651 33.676569,22.5678469 Z M32.0150374,14.4710134 C37.0385156,14.4710134 41.1240393,18.5410705 41.1240393,23.5444578 C41.1240393,24.0337083 41.0748734,24.5111034 40.9989211,24.9795639 C35.8957752,24.616943 34.5528284,21.124923 34.4962314,20.9709745 L33.9707004,19.4817974 L33.1644312,20.8407024 C31.2124837,24.1254589 24.7775375,22.9338182 22.9663047,22.5223152 C23.4792288,17.9992868 27.339177,14.4710134 32.0150374,14.4710134 Z M32.014951,34.088987 C37.8521295,34.088987 42.6010043,29.3579906 42.6010043,23.5448874 C42.6010043,17.7310109 37.8521295,13 32.014951,13 C26.1763036,13 21.4275065,17.7310109 21.4275065,23.5448874 C21.4282496,29.3586779 26.1777725,34.088987 32.014951,34.088987 Z M16.4992236,51.5201354 C16.5647378,44.0594736 21.0768126,38.1989487 26.920705,38.1989487 L37.3429295,38.1989487 C43.1867614,38.1989487 48.4447498,44.0594736 48.5095554,51.5201354 L16.4992236,51.5201354 Z M37.6705007,36.7189982 L26.6937122,36.7189982 C20.0584905,36.7189982 15,43.5269251 15,51.8054385 C15,52.3375574 15,53 15.7020098,53 L49.2972471,53 C50,53 50,52.3368702 50,51.8054385 C50,43.5269251 44.3057397,36.7189982 37.6705007,36.7189982 Z" id="Shape"></path>
            </g>
        </g>
    </g>
</svg>