<?xml version="1.0" encoding="UTF-8"?>
<svg width="65px" height="65px" viewBox="0 0 65 65" version="1.1" xmlns="http://www.w3.org/2000/svg" xmlns:xlink="http://www.w3.org/1999/xlink">
    <title>assistantDateIcon</title>
    <g id="Page-1" stroke="none" stroke-width="1" fill="none" fill-rule="evenodd">
        <g id="Artboard" transform="translate(-402.000000, -4.000000)" fill="#FFFFFF">
            <g id="assistantDateIcon" transform="translate(402.000000, 4.000000)">
                <path d="M43.4693878,44.0625025 L45.0204082,44.0625025 L45.0204082,42.5208363 L43.4693878,42.5208363 L43.4693878,44.0625025 Z M41.9183673,45.6041686 L46.5714286,45.6041686 L46.5714286,40.9791702 L41.9183673,40.9791702 L41.9183673,45.6041686 Z M35.7142857,44.0625025 L37.2653061,44.0625025 L37.2653061,42.5208363 L35.7142857,42.5208363 L35.7142857,44.0625025 Z M34.1632653,45.6041686 L38.8163265,45.6041686 L38.8163265,40.9791702 L34.1632653,40.9791702 L34.1632653,45.6041686 Z M27.9591837,44.0625025 L29.5102041,44.0625025 L29.5102041,42.5208363 L27.9591837,42.5208363 L27.9591837,44.0625025 Z M26.4081633,45.6041686 L31.0612245,45.6041686 L31.0612245,40.9791702 L26.4081633,40.9791702 L26.4081633,45.6041686 Z M20.2040816,44.0625025 L21.755102,44.0625025 L21.755102,42.5208363 L20.2040816,42.5208363 L20.2040816,44.0625025 Z M18.6530612,45.6041686 L23.3061224,45.6041686 L23.3061224,40.9791702 L18.6530612,40.9791702 L18.6530612,45.6041686 Z M43.4693878,36.3541719 L45.0204082,36.3541719 L45.0204082,34.8125057 L43.4693878,34.8125057 L43.4693878,36.3541719 Z M41.9183673,37.895838 L46.5714286,37.895838 L46.5714286,33.2708396 L41.9183673,33.2708396 L41.9183673,37.895838 Z M35.7142857,36.3541719 L37.2653061,36.3541719 L37.2653061,34.8125057 L35.7142857,34.8125057 L35.7142857,36.3541719 Z M34.1632653,37.895838 L38.8163265,37.895838 L38.8163265,33.2708396 L34.1632653,33.2708396 L34.1632653,37.895838 Z M27.9591837,36.3541719 L29.5102041,36.3541719 L29.5102041,34.8125057 L27.9591837,34.8125057 L27.9591837,36.3541719 Z M26.4081633,37.895838 L31.0612245,37.895838 L31.0612245,33.2708396 L26.4081633,33.2708396 L26.4081633,37.895838 Z M20.2040816,36.3541719 L21.755102,36.3541719 L21.755102,34.8125057 L20.2040816,34.8125057 L20.2040816,36.3541719 Z M18.6530612,37.895838 L23.3061224,37.895838 L23.3061224,33.2708396 L18.6530612,33.2708396 L18.6530612,37.895838 Z M43.4693878,28.6458413 L45.0204082,28.6458413 L45.0204082,27.1041751 L43.4693878,27.1041751 L43.4693878,28.6458413 Z M41.9183673,30.1875074 L46.5714286,30.1875074 L46.5714286,25.562509 L41.9183673,25.562509 L41.9183673,30.1875074 Z M35.7142857,28.6458413 L37.2653061,28.6458413 L37.2653061,27.1041751 L35.7142857,27.1041751 L35.7142857,28.6458413 Z M34.1632653,30.1875074 L38.8163265,30.1875074 L38.8163265,25.562509 L34.1632653,25.562509 L34.1632653,30.1875074 Z M27.9591837,28.6458413 L29.5102041,28.6458413 L29.5102041,27.1041751 L27.9591837,27.1041751 L27.9591837,28.6458413 Z M26.4081633,30.1875074 L31.0612245,30.1875074 L31.0612245,25.562509 L26.4081633,25.562509 L26.4081633,30.1875074 Z M20.2040816,28.6458413 L21.755102,28.6458413 L21.755102,27.1041751 L20.2040816,27.1041751 L20.2040816,28.6458413 Z M18.6530612,30.1875074 L23.3061224,30.1875074 L23.3061224,25.562509 L18.6530612,25.562509 L18.6530612,30.1875074 Z M50.4489796,48.6875008 C50.4489796,49.1137715 50.101551,49.4583339 49.6734694,49.4583339 L16.3265306,49.4583339 C15.898449,49.4583339 15.5510204,49.1137715 15.5510204,48.6875008 L15.5510204,20.1666622 C15.5510204,19.7411623 15.898449,19.3958291 16.3265306,19.3958291 L23.3061224,19.3958291 L23.3061224,21.7083437 C23.3061224,22.1346144 23.6527755,22.4791768 24.0816327,22.4791768 C24.5097143,22.4791768 24.8571429,22.1346144 24.8571429,21.7083437 L24.8571429,19.3958291 L31.8367347,19.3958291 L31.8367347,21.7083437 C31.8367347,22.1346144 32.1833878,22.4791768 32.6122449,22.4791768 C33.041102,22.4791768 33.3877551,22.1346144 33.3877551,21.7083437 L33.3877551,19.3958291 L40.3673469,19.3958291 L40.3673469,21.7083437 C40.3673469,22.1346144 40.714,22.4791768 41.1428571,22.4791768 C41.5717143,22.4791768 41.9183673,22.1346144 41.9183673,21.7083437 L41.9183673,19.3958291 L49.6734694,19.3958291 C50.101551,19.3958291 50.4489796,19.7411623 50.4489796,20.1666622 L50.4489796,48.6875008 Z M49.6734694,17.854163 L41.9183673,17.854163 L41.9183673,14.7708307 C41.9183673,14.3445624 41.5717143,14 41.1428571,14 C40.714,14 40.3673469,14.3445624 40.3673469,14.7708307 L40.3673469,17.854163 L33.3877551,17.854163 L33.3877551,14.7708307 C33.3877551,14.3445624 33.041102,14 32.6122449,14 C32.1833878,14 31.8367347,14.3445624 31.8367347,14.7708307 L31.8367347,17.854163 L24.8571429,17.854163 L24.8571429,14.7708307 C24.8571429,14.3445624 24.5097143,14 24.0816327,14 C23.6527755,14 23.3061224,14.3445624 23.3061224,14.7708307 L23.3061224,17.854163 L16.3265306,17.854163 C15.0438367,17.854163 14,18.8917043 14,20.1666622 L14,48.6875008 C14,49.9616879 15.0438367,51 16.3265306,51 L49.6734694,51 C50.9561633,51 52,49.9616879 52,48.6875008 L52,20.1666622 C52,18.8917043 50.9561633,17.854163 49.6734694,17.854163 Z" id="Shape"></path>
            </g>
        </g>
    </g>
</svg>