<?xml version="1.0" encoding="UTF-8"?>
<svg width="66px" height="66px" viewBox="0 0 66 66" version="1.1" xmlns="http://www.w3.org/2000/svg" xmlns:xlink="http://www.w3.org/1999/xlink">
    <title>assistantLocationIcon@1x</title>
    <defs>
        <path d="M18.9479045,17.981665 C14.52939,17.981665 10.9332491,14.3684 10.9332491,9.926215 C10.9332491,5.486155 14.52939,1.8721845 18.9479045,1.8721845 C23.3670955,1.8721845 26.9624755,5.48539 26.9624755,9.926215 C26.9624755,14.3684 23.3670955,17.981665 18.9479045,17.981665 Z M28.4199545,9.926215 C28.4199545,4.6769805 24.1712073,0.406113 18.9485809,0.406113 C13.7259545,0.406113 9.47653091,4.6769805 9.47653091,9.926215 C9.47653091,15.175475 13.7259545,19.44783 18.9485809,19.44783 C24.1712073,19.44783 28.4199545,15.175475 28.4199545,9.926215 Z M12.3427064,37.02311 L15.8033209,32.198595 L21.7208264,36.61664 L24.2847518,32.605745 L34.4277545,35.489625 L35.3091409,39.220785 L12.6981355,39.220785 L12.6981355,37.02311 L12.3427064,37.02311 Z M11.2274673,37.023195 L11.2274673,39.220105 L1.85805545,39.220105 L3.51083455,32.228685 L11.7650918,37.023195 L11.2274673,37.023195 Z M4.45486909,28.23394 L18.2128664,28.23394 L18.2128664,32.16723 L15.4806109,30.12774 L11.7548618,35.321325 L3.86338909,30.73702 L4.45486909,28.23394 Z M19.6835345,32.627845 L19.6835345,28.23394 L25.33599,28.23394 L21.3326782,34.495975 L18.8298791,32.627845 L19.6835345,32.627845 Z M32.7131727,28.23394 L34.0432418,33.8589 L25.1086473,31.31774 L27.0796555,28.23394 L32.7131727,28.23394 Z M33.8786318,26.7699 L19.6835345,26.7699 L19.6835345,19.44817 L18.9479045,19.44817 L18.21219,19.44817 L18.21219,26.7699 L3.28873364,26.7699 L0,40.68389 L37.1680418,40.68389 L33.8786318,26.7699 Z" id="path-1"></path>
    </defs>
    <g id="Page-1" stroke="none" stroke-width="1" fill="none" fill-rule="evenodd">
        <g id="Artboard" transform="translate(-253.000000, -3.000000)">
            <g id="assistantLocationIcon" transform="translate(253.000000, 3.000000)">
                <g id="icons" transform="translate(15.000000, 13.000000)">
                    <mask id="mask-2" fill="white">
                        <use xlink:href="#path-1"></use>
                    </mask>
                    <g id="Shape"></g>
                    <path d="M12.3427064,37.02311 L11.6569582,36.525945 L10.6906036,37.87311 L12.3427064,37.87311 L12.3427064,37.02311 Z M15.8033209,32.198595 L16.3073809,31.516215 L15.6190118,31.002305 L15.1175727,31.70143 L15.8033209,32.198595 Z M21.7208264,36.61664 L21.2167664,37.299105 L21.9430118,37.84132 L22.4320227,37.076235 L21.7208264,36.61664 Z M24.2847518,32.605745 L24.5148845,31.787875 L23.91216,31.616515 L23.5735555,32.146235 L24.2847518,32.605745 Z M34.4277545,35.489625 L35.2502973,35.293275 L35.1356536,34.807585 L34.6578027,34.671755 L34.4277545,35.489625 Z M35.3091409,39.220785 L35.3091409,40.070785 L36.3788945,40.070785 L36.1316836,39.02435 L35.3091409,39.220785 Z M12.6981355,39.220785 L11.8526809,39.220785 L11.8526809,40.070785 L12.6981355,40.070785 L12.6981355,39.220785 Z M12.6981355,37.02311 L13.54359,37.02311 L13.54359,36.17311 L12.6981355,36.17311 L12.6981355,37.02311 Z M11.2274673,37.023195 L11.2274673,36.173195 L10.3820127,36.173195 L10.3820127,37.023195 L11.2274673,37.023195 Z M11.2274673,39.220105 L11.2274673,40.070105 L12.0729218,40.070105 L12.0729218,39.220105 L11.2274673,39.220105 Z M1.85805545,39.220105 L1.03551273,39.023585 L0.788132727,40.070105 L1.85805545,40.070105 L1.85805545,39.220105 Z M3.51083455,32.228685 L3.93381545,31.49267 L2.95080545,30.921725 L2.68829182,32.032165 L3.51083455,32.228685 Z M11.7650918,37.023195 L11.7650918,37.873195 L14.9184682,37.873195 L12.1879882,36.28718 L11.7650918,37.023195 Z M4.45486909,28.23394 L4.45486909,27.38394 L3.78670636,27.38394 L3.63224182,28.037505 L4.45486909,28.23394 Z M18.2128664,28.23394 L19.0583209,28.23394 L19.0583209,27.38394 L18.2128664,27.38394 L18.2128664,28.23394 Z M18.2128664,32.16723 L17.7088909,32.849695 L19.0583209,33.85703 L19.0583209,32.16723 L18.2128664,32.16723 Z M15.4806109,30.12774 L15.9845864,29.445275 L15.2963864,28.931535 L14.7949473,29.63049 L15.4806109,30.12774 Z M11.7548618,35.321325 L11.3318809,36.057255 L11.9935336,36.441625 L12.44061,35.81849 L11.7548618,35.321325 Z M3.86338909,30.73702 L3.04084636,30.540585 L2.89534364,31.156325 L3.44040818,31.47295 L3.86338909,30.73702 Z M19.6835345,32.627845 L19.6835345,33.477845 L20.5289891,33.477845 L20.5289891,32.627845 L19.6835345,32.627845 Z M19.6835345,28.23394 L19.6835345,27.38394 L18.83808,27.38394 L18.83808,28.23394 L19.6835345,28.23394 Z M25.33599,28.23394 L26.0471864,28.693535 L26.8843555,27.38394 L25.33599,27.38394 L25.33599,28.23394 Z M21.3326782,34.495975 L20.8287027,35.17844 L21.5548636,35.720485 L22.0438745,34.95557 L21.3326782,34.495975 Z M18.8298791,32.627845 L18.8298791,31.777845 L16.2728018,31.777845 L18.3259036,33.31031 L18.8298791,32.627845 Z M32.7131727,28.23394 L33.5357155,28.037335 L33.3811664,27.38394 L32.7131727,27.38394 L32.7131727,28.23394 Z M34.0432418,33.8589 L33.8130245,34.67677 L35.1988091,35.070915 L34.8657,33.662295 L34.0432418,33.8589 Z M25.1086473,31.31774 L24.3973664,30.85823 L23.7805227,31.82332 L24.8785145,32.13561 L25.1086473,31.31774 Z M27.0796555,28.23394 L27.0796555,27.38394 L26.6180373,27.38394 L26.3684591,27.77443 L27.0796555,28.23394 Z M33.8786318,26.7699 L34.7011745,26.573295 L34.54671,25.9199 L33.8786318,25.9199 L33.8786318,26.7699 Z M19.6835345,26.7699 L18.83808,26.7699 L18.83808,27.6199 L19.6835345,27.6199 L19.6835345,26.7699 Z M19.6835345,19.44817 L20.5289891,19.44817 L20.5289891,18.59817 L19.6835345,18.59817 L19.6835345,19.44817 Z M18.21219,19.44817 L18.21219,18.59817 L17.3667355,18.59817 L17.3667355,19.44817 L18.21219,19.44817 Z M18.21219,26.7699 L18.21219,27.6199 L19.0576445,27.6199 L19.0576445,26.7699 L18.21219,26.7699 Z M3.28873364,26.7699 L3.28873364,25.9199 L2.62065545,25.9199 L2.46619091,26.57338 L3.28873364,26.7699 Z M-1.9095836e-14,40.68389 L-0.822551182,40.48737 L-1.06990582,41.53389 L-1.9095836e-14,41.53389 L-1.9095836e-14,40.68389 Z M37.1680418,40.68389 L37.1680418,41.53389 L38.2380491,41.53389 L37.9905845,40.487285 L37.1680418,40.68389 Z M18.9479045,17.131665 C14.9959964,17.131665 11.7787036,13.89869 11.7787036,9.926215 L10.0877945,9.926215 C10.0877945,14.838195 14.0627836,18.831665 18.9479045,18.831665 L18.9479045,17.131665 Z M11.7787036,9.926215 C11.7787036,5.95595 14.9959964,2.7221845 18.9479045,2.7221845 L18.9479045,1.0221845 C14.0627836,1.0221845 10.0877945,5.0163685 10.0877945,9.926215 L11.7787036,9.926215 Z M18.9479045,2.7221845 C22.9004891,2.7221845 26.1170209,5.955185 26.1170209,9.926215 L27.80793,9.926215 C27.80793,5.0156375 23.8336173,1.0221845 18.9479045,1.0221845 L18.9479045,2.7221845 Z M26.1170209,9.926215 C26.1170209,13.898775 22.9004045,17.131665 18.9479045,17.131665 L18.9479045,18.831665 C23.8337864,18.831665 27.80793,14.83811 27.80793,9.926215 L26.1170209,9.926215 Z M29.2654091,9.926215 C29.2654091,4.2073725 24.6379827,-0.443887 18.9485809,-0.443887 L18.9485809,1.256113 C23.7044318,1.256113 27.5745,5.14658 27.5745,9.926215 L29.2654091,9.926215 Z M18.9485809,-0.443887 C13.2592636,-0.443887 8.63107636,4.2072875 8.63107636,9.926215 L10.3219855,9.926215 C10.3219855,5.146665 14.1926455,1.256113 18.9485809,1.256113 L18.9485809,-0.443887 Z M8.63107636,9.926215 C8.63107636,15.645015 13.2590945,20.29783 18.9485809,20.29783 L18.9485809,18.59783 C14.1928145,18.59783 10.3219855,14.705935 10.3219855,9.926215 L8.63107636,9.926215 Z M18.9485809,20.29783 C24.6381518,20.29783 29.2654091,15.64493 29.2654091,9.926215 L27.5745,9.926215 C27.5745,14.70602 23.7042627,18.59783 18.9485809,18.59783 L18.9485809,20.29783 Z M13.02837,37.520275 L16.4890691,32.69576 L15.1175727,31.70143 L11.6569582,36.525945 L13.02837,37.520275 Z M15.2992609,32.88106 L21.2167664,37.299105 L22.2248864,35.93426 L16.3073809,31.516215 L15.2992609,32.88106 Z M22.4320227,37.076235 L24.9960327,33.06534 L23.5735555,32.146235 L21.00963,36.15713 L22.4320227,37.076235 Z M24.0547036,33.4237 L34.1977064,36.30758 L34.6578027,34.671755 L24.5148845,31.787875 L24.0547036,33.4237 Z M33.6052118,35.68606 L34.4865136,39.41722 L36.1316836,39.02435 L35.2502973,35.293275 L33.6052118,35.68606 Z M35.3091409,38.370785 L12.6981355,38.370785 L12.6981355,40.070785 L35.3091409,40.070785 L35.3091409,38.370785 Z M13.54359,39.220785 L13.54359,37.02311 L11.8526809,37.02311 L11.8526809,39.220785 L13.54359,39.220785 Z M12.6981355,36.17311 L12.3427064,36.17311 L12.3427064,37.87311 L12.6981355,37.87311 L12.6981355,36.17311 Z M10.3820127,37.023195 L10.3820127,39.220105 L12.0729218,39.220105 L12.0729218,37.023195 L10.3820127,37.023195 Z M11.2274673,38.370105 L1.85805545,38.370105 L1.85805545,40.070105 L11.2274673,40.070105 L11.2274673,38.370105 Z M2.68059818,39.416625 L4.33337727,32.425205 L2.68829182,32.032165 L1.03551273,39.023585 L2.68059818,39.416625 Z M3.08785364,32.9647 L11.3421109,37.759125 L12.1879882,36.28718 L3.93381545,31.49267 L3.08785364,32.9647 Z M11.7650918,36.173195 L11.2274673,36.173195 L11.2274673,37.873195 L11.7650918,37.873195 L11.7650918,36.173195 Z M4.45486909,29.08394 L18.2128664,29.08394 L18.2128664,27.38394 L4.45486909,27.38394 L4.45486909,29.08394 Z M17.3674118,28.23394 L17.3674118,32.16723 L19.0583209,32.16723 L19.0583209,28.23394 L17.3674118,28.23394 Z M18.7168418,31.484765 L15.9845864,29.445275 L14.9766355,30.810205 L17.7088909,32.849695 L18.7168418,31.484765 Z M14.7949473,29.63049 L11.0691136,34.824075 L12.44061,35.81849 L16.1663591,30.624905 L14.7949473,29.63049 Z M12.1778427,34.58531 L4.28637,30.001005 L3.44040818,31.47295 L11.3318809,36.057255 L12.1778427,34.58531 Z M4.68593182,30.933455 L5.27741182,28.430375 L3.63224182,28.037505 L3.04084636,30.540585 L4.68593182,30.933455 Z M20.5289891,32.627845 L20.5289891,28.23394 L18.83808,28.23394 L18.83808,32.627845 L20.5289891,32.627845 Z M19.6835345,29.08394 L25.33599,29.08394 L25.33599,27.38394 L19.6835345,27.38394 L19.6835345,29.08394 Z M24.6247091,27.774345 L20.6214818,34.03638 L22.0438745,34.95557 L26.0471864,28.693535 L24.6247091,27.774345 Z M21.8366536,33.81351 L19.3338545,31.94538 L18.3259036,33.31031 L20.8287027,35.17844 L21.8366536,33.81351 Z M18.8298791,33.477845 L19.6835345,33.477845 L19.6835345,31.777845 L18.8298791,31.777845 L18.8298791,33.477845 Z M31.89063,28.430545 L33.2206991,34.055505 L34.8657,33.662295 L33.5357155,28.037335 L31.89063,28.430545 Z M34.2733745,33.040945 L25.33878,30.49987 L24.8785145,32.13561 L33.8130245,34.67677 L34.2733745,33.040945 Z M25.8199282,31.77725 L27.7909364,28.69345 L26.3684591,27.77443 L24.3973664,30.85823 L25.8199282,31.77725 Z M27.0796555,29.08394 L32.7131727,29.08394 L32.7131727,27.38394 L27.0796555,27.38394 L27.0796555,29.08394 Z M33.8786318,25.9199 L19.6835345,25.9199 L19.6835345,27.6199 L33.8786318,27.6199 L33.8786318,25.9199 Z M20.5289891,26.7699 L20.5289891,19.44817 L18.83808,19.44817 L18.83808,26.7699 L20.5289891,26.7699 Z M19.6835345,18.59817 L18.9479045,18.59817 L18.9479045,20.29817 L19.6835345,20.29817 L19.6835345,18.59817 Z M18.9479045,18.59817 L18.21219,18.59817 L18.21219,20.29817 L18.9479045,20.29817 L18.9479045,18.59817 Z M17.3667355,19.44817 L17.3667355,26.7699 L19.0576445,26.7699 L19.0576445,19.44817 L17.3667355,19.44817 Z M18.21219,25.9199 L3.28873364,25.9199 L3.28873364,27.6199 L18.21219,27.6199 L18.21219,25.9199 Z M2.46619091,26.57338 L-0.822551182,40.48737 L0.822542727,40.88041 L4.11127636,26.96642 L2.46619091,26.57338 Z M-1.77635684e-14,41.53389 L37.1680418,41.53389 L37.1680418,39.83389 L-1.77635684e-14,39.83389 L-1.77635684e-14,41.53389 Z M37.9905845,40.487285 L34.7011745,26.573295 L33.0560891,26.96642 L36.3454991,40.88041 L37.9905845,40.487285 Z" id="Shape" fill="#FFFFFF" fill-rule="nonzero" mask="url(#mask-2)"></path>
                </g>
            </g>
        </g>
    </g>
</svg>