<?xml version="1.0" encoding="UTF-8"?>
<svg width="66px" height="66px" viewBox="0 0 66 66" version="1.1" xmlns="http://www.w3.org/2000/svg" xmlns:xlink="http://www.w3.org/1999/xlink">
    <title>assistantLocationIcon@1x</title>
    <defs>
        <path d="M15.7899205,14.9847208 C12.107825,14.9847208 9.11104091,11.9736667 9.11104091,8.27184583 C9.11104091,4.57179583 12.107825,1.56015375 15.7899205,1.56015375 C19.4725795,1.56015375 22.4687295,4.57115833 22.4687295,8.27184583 C22.4687295,11.9736667 19.4725795,14.9847208 15.7899205,14.9847208 Z M23.6832955,8.27184583 C23.6832955,3.89748375 20.1426727,0.3384275 15.7904841,0.3384275 C11.4382955,0.3384275 7.89710909,3.89748375 7.89710909,8.27184583 C7.89710909,12.6462292 11.4382955,16.206525 15.7904841,16.206525 C20.1426727,16.206525 23.6832955,12.6462292 23.6832955,8.27184583 Z M10.2855886,30.8525917 L13.1694341,26.8321625 L18.1006886,30.5138667 L20.2372932,27.1714542 L28.6897955,29.5746875 L29.4242841,32.6839875 L10.5817795,32.6839875 L10.5817795,30.8525917 L10.2855886,30.8525917 Z M9.35622273,30.8526625 L9.35622273,32.6834208 L1.54837955,32.6834208 L2.92569545,26.8572375 L9.80424318,30.8526625 L9.35622273,30.8526625 Z M3.71239091,23.5282833 L15.1773886,23.5282833 L15.1773886,26.806025 L12.9005091,25.10645 L9.79571818,29.4344375 L3.21949091,25.6141833 L3.71239091,23.5282833 Z M16.4029455,27.1898708 L16.4029455,23.5282833 L21.113325,23.5282833 L17.7772318,28.7466458 L15.6915659,27.1898708 L16.4029455,27.1898708 Z M27.2609773,23.5282833 L28.3693682,28.21575 L20.9238727,26.0981167 L22.5663795,23.5282833 L27.2609773,23.5282833 Z M28.2321932,22.30825 L16.4029455,22.30825 L16.4029455,16.2068083 L15.7899205,16.2068083 L15.176825,16.2068083 L15.176825,22.30825 L2.74061136,22.30825 L0,33.9032417 L30.9733682,33.9032417 L28.2321932,22.30825 Z" id="path-1"></path>
    </defs>
    <g id="Page-1" stroke="none" stroke-width="1" fill="none" fill-rule="evenodd">
        <g id="Artboard" transform="translate(-253.000000, -3.000000)">
            <g id="assistantLocationIcon" transform="translate(253.000000, 3.000000)">
                <g id="icons" transform="translate(18.000000, 16.000000)">
                    <mask id="mask-2" fill="white">
                        <use xlink:href="#path-1"></use>
                    </mask>
                    <g id="Shape"></g>
                    <path d="M10.2855886,30.8525917 L9.71413182,30.4382875 L8.90883636,31.560925 L10.2855886,31.560925 L10.2855886,30.8525917 Z M13.1694341,26.8321625 L13.5894841,26.2635125 L13.0158432,25.8352542 L12.5979773,26.4178583 L13.1694341,26.8321625 Z M18.1006886,30.5138667 L17.6806386,31.0825875 L18.2858432,31.5344333 L18.6933523,30.8968625 L18.1006886,30.5138667 Z M20.2372932,27.1714542 L20.4290705,26.4898958 L19.9268,26.3470958 L19.6446295,26.7885292 L20.2372932,27.1714542 Z M28.6897955,29.5746875 L29.3752477,29.4110625 L29.2797114,29.0063208 L28.8815023,28.8931292 L28.6897955,29.5746875 Z M29.4242841,32.6839875 L29.4242841,33.3923208 L30.3157455,33.3923208 L30.1097364,32.5202917 L29.4242841,32.6839875 Z M10.5817795,32.6839875 L9.87723409,32.6839875 L9.87723409,33.3923208 L10.5817795,33.3923208 L10.5817795,32.6839875 Z M10.5817795,30.8525917 L11.286325,30.8525917 L11.286325,30.1442583 L10.5817795,30.1442583 L10.5817795,30.8525917 Z M9.35622273,30.8526625 L9.35622273,30.1443292 L8.65167727,30.1443292 L8.65167727,30.8526625 L9.35622273,30.8526625 Z M9.35622273,32.6834208 L9.35622273,33.3917542 L10.0607682,33.3917542 L10.0607682,32.6834208 L9.35622273,32.6834208 Z M1.54837955,32.6834208 L0.862927273,32.5196542 L0.656777273,33.3917542 L1.54837955,33.3917542 L1.54837955,32.6834208 Z M2.92569545,26.8572375 L3.27817955,26.2438917 L2.45900455,25.7681042 L2.24024318,26.6934708 L2.92569545,26.8572375 Z M9.80424318,30.8526625 L9.80424318,31.5609958 L12.4320568,31.5609958 L10.1566568,30.2393167 L9.80424318,30.8526625 Z M3.71239091,23.5282833 L3.71239091,22.81995 L3.15558864,22.81995 L3.02686818,23.3645875 L3.71239091,23.5282833 Z M15.1773886,23.5282833 L15.8819341,23.5282833 L15.8819341,22.81995 L15.1773886,22.81995 L15.1773886,23.5282833 Z M15.1773886,26.806025 L14.7574091,27.3747458 L15.8819341,28.2141917 L15.8819341,26.806025 L15.1773886,26.806025 Z M12.9005091,25.10645 L13.3204886,24.5377292 L12.7469886,24.1096125 L12.3291227,24.692075 L12.9005091,25.10645 Z M9.79571818,29.4344375 L9.44323409,30.0477125 L9.99461136,30.3680208 L10.367175,29.8487417 L9.79571818,29.4344375 Z M3.21949091,25.6141833 L2.53403864,25.4504875 L2.41278636,25.9636042 L2.86700682,26.2274583 L3.21949091,25.6141833 Z M16.4029455,27.1898708 L16.4029455,27.8982042 L17.1074909,27.8982042 L17.1074909,27.1898708 L16.4029455,27.1898708 Z M16.4029455,23.5282833 L16.4029455,22.81995 L15.6984,22.81995 L15.6984,23.5282833 L16.4029455,23.5282833 Z M21.113325,23.5282833 L21.7059886,23.9112792 L22.4036295,22.81995 L21.113325,22.81995 L21.113325,23.5282833 Z M17.7772318,28.7466458 L17.3572523,29.3153667 L17.9623864,29.7670708 L18.3698955,29.1296417 L17.7772318,28.7466458 Z M15.6915659,27.1898708 L15.6915659,26.4815375 L13.5606682,26.4815375 L15.2715864,27.7585917 L15.6915659,27.1898708 Z M27.2609773,23.5282833 L27.9464295,23.3644458 L27.8176386,22.81995 L27.2609773,22.81995 L27.2609773,23.5282833 Z M28.3693682,28.21575 L28.1775205,28.8973083 L29.3323409,29.2257625 L29.05475,28.0519125 L28.3693682,28.21575 Z M20.9238727,26.0981167 L20.3311386,25.7151917 L19.8171023,26.5194333 L20.7320955,26.779675 L20.9238727,26.0981167 Z M22.5663795,23.5282833 L22.5663795,22.81995 L22.1816977,22.81995 L21.9737159,23.1453583 L22.5663795,23.5282833 Z M28.2321932,22.30825 L28.9176455,22.1444125 L28.788925,21.5999167 L28.2321932,21.5999167 L28.2321932,22.30825 Z M16.4029455,22.30825 L15.6984,22.30825 L15.6984,23.0165833 L16.4029455,23.0165833 L16.4029455,22.30825 Z M16.4029455,16.2068083 L17.1074909,16.2068083 L17.1074909,15.498475 L16.4029455,15.498475 L16.4029455,16.2068083 Z M15.176825,16.2068083 L15.176825,15.498475 L14.4722795,15.498475 L14.4722795,16.2068083 L15.176825,16.2068083 Z M15.176825,22.30825 L15.176825,23.0165833 L15.8813705,23.0165833 L15.8813705,22.30825 L15.176825,22.30825 Z M2.74061136,22.30825 L2.74061136,21.5999167 L2.18387955,21.5999167 L2.05515909,22.1444833 L2.74061136,22.30825 Z M0,33.9032417 L-0.685459318,33.739475 L-0.891588182,34.611575 L0,34.611575 L0,33.9032417 Z M30.9733682,33.9032417 L30.9733682,34.611575 L31.8650409,34.611575 L31.6588205,33.7394042 L30.9733682,33.9032417 Z M15.7899205,14.2763875 C12.4966636,14.2763875 9.81558636,11.5822417 9.81558636,8.27184583 L8.40649545,8.27184583 C8.40649545,12.3651625 11.7189864,15.6930542 15.7899205,15.6930542 L15.7899205,14.2763875 Z M9.81558636,8.27184583 C9.81558636,4.96329167 12.4966636,2.26848708 15.7899205,2.26848708 L15.7899205,0.851820417 C11.7189864,0.851820417 8.40649545,4.18030708 8.40649545,8.27184583 L9.81558636,8.27184583 Z M15.7899205,2.26848708 C19.0837409,2.26848708 21.7641841,4.96265417 21.7641841,8.27184583 L23.173275,8.27184583 C23.173275,4.17969792 19.8613477,0.851820417 15.7899205,0.851820417 L15.7899205,2.26848708 Z M21.7641841,8.27184583 C21.7641841,11.5823125 19.0836705,14.2763875 15.7899205,14.2763875 L15.7899205,15.6930542 C19.8614886,15.6930542 23.173275,12.3650917 23.173275,8.27184583 L21.7641841,8.27184583 Z M24.3878409,8.27184583 C24.3878409,3.50614375 20.5316523,-0.369905833 15.7904841,-0.369905833 L15.7904841,1.04676083 C19.7536932,1.04676083 22.97875,4.28881667 22.97875,8.27184583 L24.3878409,8.27184583 Z M15.7904841,-0.369905833 C11.0493864,-0.369905833 7.19256364,3.50607292 7.19256364,8.27184583 L8.60165455,8.27184583 C8.60165455,4.2888875 11.8272045,1.04676083 15.7904841,1.04676083 L15.7904841,-0.369905833 Z M7.19256364,8.27184583 C7.19256364,13.0375125 11.0492455,16.9148583 15.7904841,16.9148583 L15.7904841,15.4981917 C11.8273455,15.4981917 8.60165455,12.2549458 8.60165455,8.27184583 L7.19256364,8.27184583 Z M15.7904841,16.9148583 C20.5317932,16.9148583 24.3878409,13.0374417 24.3878409,8.27184583 L22.97875,8.27184583 C22.97875,12.2550167 19.7535523,15.4981917 15.7904841,15.4981917 L15.7904841,16.9148583 Z M10.856975,31.2668958 L13.7408909,27.2464667 L12.5979773,26.4178583 L9.71413182,30.4382875 L10.856975,31.2668958 Z M12.7493841,27.4008833 L17.6806386,31.0825875 L18.5207386,29.9452167 L13.5894841,26.2635125 L12.7493841,27.4008833 Z M18.6933523,30.8968625 L20.8300273,27.55445 L19.6446295,26.7885292 L17.508025,30.1309417 L18.6933523,30.8968625 Z M20.0455864,27.8530833 L28.4980886,30.2563167 L28.8815023,28.8931292 L20.4290705,26.4898958 L20.0455864,27.8530833 Z M28.0043432,29.7383833 L28.7387614,32.8476833 L30.1097364,32.5202917 L29.3752477,29.4110625 L28.0043432,29.7383833 Z M29.4242841,31.9756542 L10.5817795,31.9756542 L10.5817795,33.3923208 L29.4242841,33.3923208 L29.4242841,31.9756542 Z M11.286325,32.6839875 L11.286325,30.8525917 L9.87723409,30.8525917 L9.87723409,32.6839875 L11.286325,32.6839875 Z M10.5817795,30.1442583 L10.2855886,30.1442583 L10.2855886,31.560925 L10.5817795,31.560925 L10.5817795,30.1442583 Z M8.65167727,30.8526625 L8.65167727,32.6834208 L10.0607682,32.6834208 L10.0607682,30.8526625 L8.65167727,30.8526625 Z M9.35622273,31.9750875 L1.54837955,31.9750875 L1.54837955,33.3917542 L9.35622273,33.3917542 L9.35622273,31.9750875 Z M2.23383182,32.8471875 L3.61114773,27.0210042 L2.24024318,26.6934708 L0.862927273,32.5196542 L2.23383182,32.8471875 Z M2.57321136,27.4705833 L9.45175909,31.4659375 L10.1566568,30.2393167 L3.27817955,26.2438917 L2.57321136,27.4705833 Z M9.80424318,30.1443292 L9.35622273,30.1443292 L9.35622273,31.5609958 L9.80424318,31.5609958 L9.80424318,30.1443292 Z M3.71239091,24.2366167 L15.1773886,24.2366167 L15.1773886,22.81995 L3.71239091,22.81995 L3.71239091,24.2366167 Z M14.4728432,23.5282833 L14.4728432,26.806025 L15.8819341,26.806025 L15.8819341,23.5282833 L14.4728432,23.5282833 Z M15.5973682,26.2373042 L13.3204886,24.5377292 L12.4805295,25.6751708 L14.7574091,27.3747458 L15.5973682,26.2373042 Z M12.3291227,24.692075 L9.22426136,29.0200625 L10.367175,29.8487417 L13.4719659,25.5207542 L12.3291227,24.692075 Z M10.1482023,28.8210917 L3.571975,25.0008375 L2.86700682,26.2274583 L9.44323409,30.0477125 L10.1482023,28.8210917 Z M3.90494318,25.7778792 L4.39784318,23.6919792 L3.02686818,23.3645875 L2.53403864,25.4504875 L3.90494318,25.7778792 Z M17.1074909,27.1898708 L17.1074909,23.5282833 L15.6984,23.5282833 L15.6984,27.1898708 L17.1074909,27.1898708 Z M16.4029455,24.2366167 L21.113325,24.2366167 L21.113325,22.81995 L16.4029455,22.81995 L16.4029455,24.2366167 Z M20.5205909,23.1452875 L17.1845682,28.36365 L18.3698955,29.1296417 L21.7059886,23.9112792 L20.5205909,23.1452875 Z M18.1972114,28.177925 L16.1115455,26.62115 L15.2715864,27.7585917 L17.3572523,29.3153667 L18.1972114,28.177925 Z M15.6915659,27.8982042 L16.4029455,27.8982042 L16.4029455,26.4815375 L15.6915659,26.4815375 L15.6915659,27.8982042 Z M26.575525,23.6921208 L27.6839159,28.3795875 L29.05475,28.0519125 L27.9464295,23.3644458 L26.575525,23.6921208 Z M28.5611455,27.5341208 L21.11565,25.4165583 L20.7320955,26.779675 L28.1775205,28.8973083 L28.5611455,27.5341208 Z M21.5166068,26.4810417 L23.1591136,23.9112083 L21.9737159,23.1453583 L20.3311386,25.7151917 L21.5166068,26.4810417 Z M22.5663795,24.2366167 L27.2609773,24.2366167 L27.2609773,22.81995 L22.5663795,22.81995 L22.5663795,24.2366167 Z M28.2321932,21.5999167 L16.4029455,21.5999167 L16.4029455,23.0165833 L28.2321932,23.0165833 L28.2321932,21.5999167 Z M17.1074909,22.30825 L17.1074909,16.2068083 L15.6984,16.2068083 L15.6984,22.30825 L17.1074909,22.30825 Z M16.4029455,15.498475 L15.7899205,15.498475 L15.7899205,16.9151417 L16.4029455,16.9151417 L16.4029455,15.498475 Z M15.7899205,15.498475 L15.176825,15.498475 L15.176825,16.9151417 L15.7899205,16.9151417 L15.7899205,15.498475 Z M14.4722795,16.2068083 L14.4722795,22.30825 L15.8813705,22.30825 L15.8813705,16.2068083 L14.4722795,16.2068083 Z M15.176825,21.5999167 L2.74061136,21.5999167 L2.74061136,23.0165833 L15.176825,23.0165833 L15.176825,21.5999167 Z M2.05515909,22.1444833 L-0.685459318,33.739475 L0.685452273,34.0670083 L3.42606364,22.4720167 L2.05515909,22.1444833 Z M-1.33226763e-15,34.611575 L30.9733682,34.611575 L30.9733682,33.1949083 L-1.33226763e-15,33.1949083 L-1.33226763e-15,34.611575 Z M31.6588205,33.7394042 L28.9176455,22.1444125 L27.5467409,22.4720167 L30.2879159,34.0670083 L31.6588205,33.7394042 Z" id="Shape" fill="#FFFFFF" fill-rule="nonzero" mask="url(#mask-2)"></path>
                </g>
            </g>
        </g>
    </g>
</svg>