<?xml version="1.0" encoding="UTF-8"?>
<svg width="65px" height="65px" viewBox="0 0 65 65" version="1.1" xmlns="http://www.w3.org/2000/svg" xmlns:xlink="http://www.w3.org/1999/xlink">
    <title>assistantDateIcon</title>
    <g id="Page-1" stroke="none" stroke-width="1" fill="none" fill-rule="evenodd">
        <g id="Artboard" transform="translate(-402.000000, -4.000000)" fill="#FFFFFF">
            <g id="assistantDateIcon" transform="translate(402.000000, 4.000000)">
                <path d="M41.8163265,42.1875021 L43.122449,42.1875021 L43.122449,40.8958358 L41.8163265,40.8958358 L41.8163265,42.1875021 Z M40.5102041,43.4791683 L44.4285714,43.4791683 L44.4285714,39.6041696 L40.5102041,39.6041696 L40.5102041,43.4791683 Z M35.2857143,42.1875021 L36.5918367,42.1875021 L36.5918367,40.8958358 L35.2857143,40.8958358 L35.2857143,42.1875021 Z M33.9795918,43.4791683 L37.8979592,43.4791683 L37.8979592,39.6041696 L33.9795918,39.6041696 L33.9795918,43.4791683 Z M28.755102,42.1875021 L30.0612245,42.1875021 L30.0612245,40.8958358 L28.755102,40.8958358 L28.755102,42.1875021 Z M27.4489796,43.4791683 L31.3673469,43.4791683 L31.3673469,39.6041696 L27.4489796,39.6041696 L27.4489796,43.4791683 Z M22.2244898,42.1875021 L23.5306122,42.1875021 L23.5306122,40.8958358 L22.2244898,40.8958358 L22.2244898,42.1875021 Z M20.9183673,43.4791683 L24.8367347,43.4791683 L24.8367347,39.6041696 L20.9183673,39.6041696 L20.9183673,43.4791683 Z M41.8163265,35.729171 L43.122449,35.729171 L43.122449,34.4375048 L41.8163265,34.4375048 L41.8163265,35.729171 Z M40.5102041,37.0208372 L44.4285714,37.0208372 L44.4285714,33.1458386 L40.5102041,33.1458386 L40.5102041,37.0208372 Z M35.2857143,35.729171 L36.5918367,35.729171 L36.5918367,34.4375048 L35.2857143,34.4375048 L35.2857143,35.729171 Z M33.9795918,37.0208372 L37.8979592,37.0208372 L37.8979592,33.1458386 L33.9795918,33.1458386 L33.9795918,37.0208372 Z M28.755102,35.729171 L30.0612245,35.729171 L30.0612245,34.4375048 L28.755102,34.4375048 L28.755102,35.729171 Z M27.4489796,37.0208372 L31.3673469,37.0208372 L31.3673469,33.1458386 L27.4489796,33.1458386 L27.4489796,37.0208372 Z M22.2244898,35.729171 L23.5306122,35.729171 L23.5306122,34.4375048 L22.2244898,34.4375048 L22.2244898,35.729171 Z M20.9183673,37.0208372 L24.8367347,37.0208372 L24.8367347,33.1458386 L20.9183673,33.1458386 L20.9183673,37.0208372 Z M41.8163265,29.27084 L43.122449,29.27084 L43.122449,27.9791738 L41.8163265,27.9791738 L41.8163265,29.27084 Z M40.5102041,30.5625062 L44.4285714,30.5625062 L44.4285714,26.6875075 L40.5102041,26.6875075 L40.5102041,30.5625062 Z M35.2857143,29.27084 L36.5918367,29.27084 L36.5918367,27.9791738 L35.2857143,27.9791738 L35.2857143,29.27084 Z M33.9795918,30.5625062 L37.8979592,30.5625062 L37.8979592,26.6875075 L33.9795918,26.6875075 L33.9795918,30.5625062 Z M28.755102,29.27084 L30.0612245,29.27084 L30.0612245,27.9791738 L28.755102,27.9791738 L28.755102,29.27084 Z M27.4489796,30.5625062 L31.3673469,30.5625062 L31.3673469,26.6875075 L27.4489796,26.6875075 L27.4489796,30.5625062 Z M22.2244898,29.27084 L23.5306122,29.27084 L23.5306122,27.9791738 L22.2244898,27.9791738 L22.2244898,29.27084 Z M20.9183673,30.5625062 L24.8367347,30.5625062 L24.8367347,26.6875075 L20.9183673,26.6875075 L20.9183673,30.5625062 Z M47.6938776,46.0625007 C47.6938776,46.4196464 47.4013061,46.7083338 47.0408163,46.7083338 L18.9591837,46.7083338 C18.5986939,46.7083338 18.3061224,46.4196464 18.3061224,46.0625007 L18.3061224,22.1666629 C18.3061224,21.810163 18.5986939,21.5208298 18.9591837,21.5208298 L24.8367347,21.5208298 L24.8367347,23.458342 C24.8367347,23.8154877 25.1286531,24.1041751 25.4897959,24.1041751 C25.8502857,24.1041751 26.1428571,23.8154877 26.1428571,23.458342 L26.1428571,21.5208298 L32.0204082,21.5208298 L32.0204082,23.458342 C32.0204082,23.8154877 32.3123265,24.1041751 32.6734694,24.1041751 C33.0346122,24.1041751 33.3265306,23.8154877 33.3265306,23.458342 L33.3265306,21.5208298 L39.2040816,21.5208298 L39.2040816,23.458342 C39.2040816,23.8154877 39.496,24.1041751 39.8571429,24.1041751 C40.2182857,24.1041751 40.5102041,23.8154877 40.5102041,23.458342 L40.5102041,21.5208298 L47.0408163,21.5208298 C47.4013061,21.5208298 47.6938776,21.810163 47.6938776,22.1666629 L47.6938776,46.0625007 Z M47.0408163,20.2291636 L40.5102041,20.2291636 L40.5102041,17.6458312 C40.5102041,17.2886874 40.2182857,17 39.8571429,17 C39.496,17 39.2040816,17.2886874 39.2040816,17.6458312 L39.2040816,20.2291636 L33.3265306,20.2291636 L33.3265306,17.6458312 C33.3265306,17.2886874 33.0346122,17 32.6734694,17 C32.3123265,17 32.0204082,17.2886874 32.0204082,17.6458312 L32.0204082,20.2291636 L26.1428571,20.2291636 L26.1428571,17.6458312 C26.1428571,17.2886874 25.8502857,17 25.4897959,17 C25.1286531,17 24.8367347,17.2886874 24.8367347,17.6458312 L24.8367347,20.2291636 L18.9591837,20.2291636 C17.8790204,20.2291636 17,21.0984549 17,22.1666629 L17,46.0625007 C17,47.1300628 17.8790204,48 18.9591837,48 L47.0408163,48 C48.1209796,48 49,47.1300628 49,46.0625007 L49,22.1666629 C49,21.0984549 48.1209796,20.2291636 47.0408163,20.2291636 Z" id="Shape"></path>
            </g>
        </g>
    </g>
</svg>