<?xml version="1.0" encoding="UTF-8"?>
<svg width="65px" height="65px" viewBox="0 0 65 65" version="1.1" xmlns="http://www.w3.org/2000/svg" xmlns:xlink="http://www.w3.org/1999/xlink">
    <title>assistantNameIcon</title>
    <g id="Page-1" stroke="none" stroke-width="1" fill="none" fill-rule="evenodd">
        <g id="Artboard" transform="translate(-107.000000, -4.000000)" fill="#FFFFFF">
            <g id="assistantNameIcon" transform="translate(107.000000, 4.000000)">
                <path d="M33.4748714,23.8934737 C34.1990535,25.0102469 35.8693616,26.7780047 39.2483527,27.0784427 C38.2429461,30.0411487 35.4203186,32.1832668 32.0981022,32.1832668 C28.0702469,32.1832668 24.7788879,29.0379167 24.5691651,25.0951549 C26.363497,25.4810678 31.1395902,26.2272371 33.4748714,23.8934737 Z M32.0981738,17.2135861 C36.2604843,17.2135861 39.6456326,20.5713832 39.6456326,24.6991777 C39.6456326,25.1028094 39.6048951,25.4966603 39.5419632,25.8831402 C35.3136423,25.583978 34.2009149,22.7030615 34.1540203,22.576054 L33.7185803,21.3474829 L33.0505287,22.4685795 C31.4332008,25.1785036 26.1013882,24.1954 24.6006525,23.85591 C25.0256468,20.1244117 28.2238895,17.2135861 32.0981738,17.2135861 Z M32.0981022,33.3984142 C36.9346215,33.3984142 40.8694036,29.4953423 40.8694036,24.6995321 C40.8694036,19.903084 36.9346215,16 32.0981022,16 C27.2603658,16 23.3256482,19.903084 23.3256482,24.6995321 C23.326264,29.4959093 27.2615829,33.3984142 32.0981022,33.3984142 Z M19.2422138,47.7791117 C19.296497,41.6240658 23.0350733,36.7891327 27.8771556,36.7891327 L36.512713,36.7891327 C41.3547451,36.7891327 45.7113641,41.6240658 45.7650602,47.7791117 L19.2422138,47.7791117 Z M36.7841291,35.5681735 L27.6890759,35.5681735 C22.1913207,35.5681735 18,41.1847132 18,48.0144867 C18,48.4534849 18,49 18.5816653,49 L46.417719,49 C47,49 47,48.4529179 47,48.0144867 C47,41.1847132 42.2818986,35.5681735 36.7841291,35.5681735 Z" id="Shape"></path>
            </g>
        </g>
    </g>
</svg>