<?xml version="1.0" encoding="UTF-8"?>
<svg width="65px" height="65px" viewBox="0 0 65 65" version="1.1" xmlns="http://www.w3.org/2000/svg" xmlns:xlink="http://www.w3.org/1999/xlink">
    <title>assistantTimeIcon</title>
    <defs>
        <path d="M19.608669,18.0949643 L12.862689,18.0949643 L12.862689,19.5928005 L21.107766,19.5928005 L21.107766,6.11229216 L19.608669,6.11229216 L19.608669,18.0949643 Z M19.608669,33.8214186 C10.914672,33.8214186 3.8681853,26.7815624 3.8681853,18.0948774 C3.8681853,9.40897478 10.914672,2.3676669 19.608669,2.3676669 C28.301883,2.3676669 35.349144,9.40897478 35.349144,18.0948774 C35.349144,26.780867 28.301883,33.8214186 19.608669,33.8214186 Z M19.608669,0.869268293 C10.087215,0.869268293 2.3690883,8.58236148 2.3690883,18.0951382 C2.3690883,27.6078019 10.087215,35.320211 19.608669,35.320211 C29.129427,35.320211 36.848241,27.6078019 36.848241,18.0951382 C36.848241,8.58236148 29.129427,0.869268293 19.608669,0.869268293 Z M32.237067,1.6198267 C31.480776,1.6198267 30.760416,1.75687554 30.091125,1.99652411 L31.255881,3.18356212 C31.572996,3.12065318 31.898985,3.08395267 32.237067,3.08395267 C34.817748,3.08395267 36.90975,5.05061133 36.90975,7.47634797 C36.90975,7.91372031 36.821271,8.32637066 36.695382,8.72329595 L37.81368,9.86238512 C38.154024,9.13295602 38.347338,8.32711823 38.347338,7.4756004 C38.347338,4.24178327 35.611536,1.6198267 32.237067,1.6198267 Z M2.3076315,7.47635666 C2.3076315,5.05061133 4.3996161,3.08395267 6.9795576,3.08395267 C7.3168566,3.08395267 7.6429065,3.12065318 7.9607175,3.18356212 L9.1255083,1.99653281 C8.4561651,1.75687554 7.7358486,1.6198267 6.9795576,1.6198267 C3.6050973,1.6198267 0.87,4.24178327 0.87,7.47635666 C0.87,8.32787449 1.06338273,9.13295602 1.40292807,9.86316746 L2.5212513,8.72405221 C2.3953275,8.32637935 2.3076315,7.91372031 2.3076315,7.47635666 Z" id="path-1"></path>
    </defs>
    <g id="Page-1" stroke="none" stroke-width="1" fill="none" fill-rule="evenodd">
        <g id="Artboard" transform="translate(-329.000000, -3.000000)">
            <g id="assistantTimeIcon" transform="translate(329.000000, 3.000000)">
                <g id="Group-3" transform="translate(12.000000, 14.000000)">
                    <mask id="mask-2" fill="white">
                        <use xlink:href="#path-1"></use>
                    </mask>
                    <g id="Shape"></g>
                    <path d="M19.608669,18.0949643 L19.608669,18.9642326 L20.478669,18.9642326 L20.478669,18.0949643 L19.608669,18.0949643 Z M12.862689,18.0949643 L12.862689,17.225696 L11.992689,17.225696 L11.992689,18.0949643 L12.862689,18.0949643 Z M12.862689,19.5928005 L11.992689,19.5928005 L11.992689,20.4620688 L12.862689,20.4620688 L12.862689,19.5928005 Z M21.107766,19.5928005 L21.107766,20.4620688 L21.977766,20.4620688 L21.977766,19.5928005 L21.107766,19.5928005 Z M21.107766,6.11229216 L21.977766,6.11229216 L21.977766,5.24302387 L21.107766,5.24302387 L21.107766,6.11229216 Z M19.608669,6.11229216 L19.608669,5.24302387 L18.738669,5.24302387 L18.738669,6.11229216 L19.608669,6.11229216 Z M30.091125,1.99652411 L29.797587,1.1782132 L28.518948,1.63602986 L29.469858,2.60509015 L30.091125,1.99652411 Z M31.255881,3.18356212 L30.634701,3.79212816 L30.963996,4.12772657 L31.425357,4.03618393 L31.255881,3.18356212 Z M36.695382,8.72329595 L35.866011,8.46063784 L35.707932,8.95888504 L36.074289,9.33204453 L36.695382,8.72329595 Z M37.81368,9.86238512 L37.192587,10.4711337 L38.071809,11.3666539 L38.602248,10.229651 L37.81368,9.86238512 Z M7.9607175,3.18356212 L7.7916417,4.03625347 L8.2528113,4.12754403 L8.581941,3.79212816 L7.9607175,3.18356212 Z M9.1255083,1.99653281 L9.746697,2.60509015 L10.697694,1.63602986 L9.4189941,1.17821407 L9.1255083,1.99653281 Z M1.40292807,9.86316746 L0.61392942,10.2293902 L1.14364719,11.3685663 L2.0240028,10.471916 L1.40292807,9.86316746 Z M2.5212513,8.72405221 L3.1423269,9.33273995 L3.5084316,8.95986731 L3.3507267,8.46183743 L2.5212513,8.72405221 Z M19.608669,17.225696 L12.862689,17.225696 L12.862689,18.9642326 L19.608669,18.9642326 L19.608669,17.225696 Z M11.992689,18.0949643 L11.992689,19.5928005 L13.732689,19.5928005 L13.732689,18.0949643 L11.992689,18.0949643 Z M12.862689,20.4620688 L21.107766,20.4620688 L21.107766,18.7235322 L12.862689,18.7235322 L12.862689,20.4620688 Z M21.977766,19.5928005 L21.977766,6.11229216 L20.237766,6.11229216 L20.237766,19.5928005 L21.977766,19.5928005 Z M21.107766,5.24302387 L19.608669,5.24302387 L19.608669,6.98156046 L21.107766,6.98156046 L21.107766,5.24302387 Z M18.738669,6.11229216 L18.738669,18.0949643 L20.478669,18.0949643 L20.478669,6.11229216 L18.738669,6.11229216 Z M19.608669,32.9521503 C11.395086,32.9521503 4.7381853,26.3014655 4.7381853,18.0948774 L2.9981853,18.0948774 C2.9981853,27.2617462 10.434258,34.6906869 19.608669,34.6906869 L19.608669,32.9521503 Z M4.7381853,18.0948774 C4.7381853,9.88907166 11.395173,3.2369352 19.608669,3.2369352 L19.608669,1.49839861 C10.434171,1.49839861 2.9981853,8.92892136 2.9981853,18.0948774 L4.7381853,18.0948774 Z M19.608669,3.2369352 C27.821469,3.2369352 34.479144,9.88907166 34.479144,18.0948774 L36.219144,18.0948774 C36.219144,8.92889528 28.782384,1.49839861 19.608669,1.49839861 L19.608669,3.2369352 Z M34.479144,18.0948774 C34.479144,26.3006832 27.821469,32.9521503 19.608669,32.9521503 L19.608669,34.6906869 C28.782384,34.6906869 36.219144,27.2609639 36.219144,18.0948774 L34.479144,18.0948774 Z M19.608669,0 C9.606627,0 1.49909091,8.10235153 1.49909091,18.0951382 L3.2390883,18.0951382 C3.2390883,9.06237143 10.567716,1.73853398 19.608669,1.73853398 L19.608669,0 Z M1.49909091,18.0951382 C1.49909091,28.0878988 9.606627,36.1894793 19.608669,36.1894793 L19.608669,34.4509427 C10.567716,34.4509427 3.2390883,27.1277919 3.2390883,18.0951382 L1.49909091,18.0951382 Z M19.608669,36.1894793 C29.609928,36.1894793 37.718241,28.0878988 37.718241,18.0951382 L35.978241,18.0951382 C35.978241,27.1277919 28.648926,34.4509427 19.608669,34.4509427 L19.608669,36.1894793 Z M37.718241,18.0951382 C37.718241,8.10232545 29.609928,0 19.608669,0 L19.608669,1.73853398 C28.648926,1.73853398 35.978241,9.06239751 35.978241,18.0951382 L37.718241,18.0951382 Z M32.237067,0.75055493 C31.374375,0.75055493 30.555009,0.907044954 29.797587,1.1782132 L30.384576,2.81484459 C30.96591,2.60670699 31.587177,2.48909499 32.237067,2.48909499 L32.237067,0.75055493 Z M29.469858,2.60509015 L30.634701,3.79212816 L31.877148,2.57499608 L30.712305,1.38796677 L29.469858,2.60509015 Z M31.425357,4.03618393 C31.693665,3.98294994 31.962669,3.95322096 32.237067,3.95322096 L32.237067,2.21468438 C31.835388,2.21468438 31.452327,2.25835642 31.086492,2.33094032 L31.425357,4.03618393 Z M32.237067,3.95322096 C34.388055,3.95322096 36.03975,5.57988272 36.03975,7.47634797 L37.77975,7.47634797 C37.77975,4.52133995 35.247528,2.21468438 32.237067,2.21468438 L32.237067,3.95322096 Z M36.03975,7.47634797 C36.03975,7.79584753 35.97537,8.1160425 35.866011,8.46063784 L37.524666,8.98596275 C37.667259,8.53669882 37.77975,8.03159309 37.77975,7.47634797 L36.03975,7.47634797 Z M36.074289,9.33204453 L37.192587,10.4711337 L38.434773,9.25363653 L37.316475,8.11457344 L36.074289,9.33204453 Z M38.602248,10.229651 C38.993313,9.39132863 39.217338,8.46062046 39.217338,7.4756004 L37.477338,7.4756004 C37.477338,8.1936247 37.314648,8.87456602 37.025112,9.49511927 L38.602248,10.229651 Z M39.217338,7.4756004 C39.217338,3.72788924 36.057498,0.75055493 32.237067,0.75055493 L32.237067,2.48909499 C35.165574,2.48909499 37.477338,4.7556686 37.477338,7.4756004 L39.217338,7.4756004 Z M3.1776315,7.47635666 C3.1776315,5.57979579 4.8294483,3.95322096 6.9795576,3.95322096 L6.9795576,2.21468438 C3.9697839,2.21468438 1.4376315,4.52142688 1.4376315,7.47635666 L3.1776315,7.47635666 Z M6.9795576,3.95322096 C7.253103,3.95322096 7.5222114,3.98292386 7.7916417,4.03625347 L8.1297846,2.33086208 C7.7636016,2.25838249 7.3806102,2.21468438 6.9795576,2.21468438 L6.9795576,3.95322096 Z M8.581941,3.79212816 L9.746697,2.60509015 L8.5042848,1.38796677 L7.3394853,2.57499608 L8.581941,3.79212816 Z M9.4189941,1.17821407 C8.661633,0.907044954 7.8422148,0.75055493 6.9795576,0.75055493 L6.9795576,2.48909499 C7.6294911,2.48909499 8.2507059,2.60670699 8.8320312,2.81484459 L9.4189941,1.17821407 Z M6.9795576,0.75055493 C3.1589439,0.75055493 0,3.72809786 0,7.47635666 L1.74,7.47635666 C1.74,4.75545998 4.0512507,2.48909499 6.9795576,2.48909499 L6.9795576,0.75055493 Z M0,7.47635666 C0,8.46152449 0.22411635,9.39115478 0.61392942,10.2293902 L2.1919302,9.4968578 C1.9026465,8.87479203 1.74,8.19422449 1.74,7.47635666 L0,7.47635666 Z M2.0240028,10.471916 L3.1423269,9.33273995 L1.9001757,8.1153297 L0.78185247,9.25441888 L2.0240028,10.471916 Z M3.3507267,8.46183743 C3.2416113,8.11724209 3.1776315,7.79667333 3.1776315,7.47635666 L1.4376315,7.47635666 C1.4376315,8.03076728 1.54904457,8.53550792 1.69177677,8.9862583 L3.3507267,8.46183743 Z" id="Shape" fill="#FFFFFF" fill-rule="nonzero" mask="url(#mask-2)"></path>
                </g>
            </g>
        </g>
    </g>
</svg>