<?xml version="1.0" encoding="UTF-8"?>
<svg width="65px" height="65px" viewBox="0 0 65 65" version="1.1" xmlns="http://www.w3.org/2000/svg" xmlns:xlink="http://www.w3.org/1999/xlink">
    <title>assistantTimeIcon</title>
    <defs>
        <path d="M14.8550523,13.7083063 L9.74446136,13.7083063 L9.74446136,14.8430307 L15.9907318,14.8430307 L15.9907318,4.63052437 L14.8550523,4.63052437 L14.8550523,13.7083063 Z M14.8550523,25.6222868 C8.26869091,25.6222868 2.93044341,20.2890624 2.93044341,13.7082405 C2.93044341,7.1280112 8.26869091,1.79368705 14.8550523,1.79368705 C21.4408205,1.79368705 26.7796545,7.1280112 26.7796545,13.7082405 C26.7796545,20.2885356 21.4408205,25.6222868 14.8550523,25.6222868 Z M14.8550523,0.658536585 C7.64182955,0.658536585 1.79476386,6.501789 1.79476386,13.708438 C1.79476386,20.9150014 7.64182955,26.7577356 14.8550523,26.7577356 C22.0677477,26.7577356 27.9153341,20.9150014 27.9153341,13.708438 C27.9153341,6.501789 22.0677477,0.658536585 14.8550523,0.658536585 Z M24.4220205,1.22714144 C23.8490727,1.22714144 23.3033455,1.33096632 22.7963068,1.51251827 L23.6786977,2.41178949 C23.9189364,2.3641312 24.1658977,2.33632778 24.4220205,2.33632778 C26.3770818,2.33632778 27.9619318,3.82622071 27.9619318,5.66389998 C27.9619318,5.99524266 27.8949023,6.30785656 27.7995318,6.60855754 L28.6467273,7.47150388 C28.9045636,6.91890607 29.0510136,6.3084229 29.0510136,5.66333363 C29.0510136,3.21347217 26.9784364,1.22714144 24.4220205,1.22714144 Z M1.74820568,5.66390656 C1.74820568,3.82622071 3.3330425,2.33632778 5.28754364,2.33632778 C5.54307318,2.33632778 5.79008068,2.3641312 6.03084659,2.41178949 L6.91326386,1.51252485 C6.40618568,1.33096632 5.86049136,1.22714144 5.28754364,1.22714144 C2.73113432,1.22714144 0.659090909,3.21347217 0.659090909,5.66390656 C0.659090909,6.30899583 0.805592977,6.91890607 1.0628243,7.47209656 L1.91003886,6.60913046 C1.81464205,6.30786315 1.74820568,5.99524266 1.74820568,5.66390656 Z" id="path-1"></path>
    </defs>
    <g id="Page-1" stroke="none" stroke-width="1" fill="none" fill-rule="evenodd">
        <g id="Artboard" transform="translate(-329.000000, -3.000000)">
            <g id="assistantTimeIcon" transform="translate(329.000000, 3.000000)">
                <g id="Group-3" transform="translate(17.000000, 19.000000)">
                    <mask id="mask-2" fill="white">
                        <use xlink:href="#path-1"></use>
                    </mask>
                    <g id="Shape"></g>
                    <path d="M14.8550523,13.7083063 L14.8550523,14.3668429 L15.5141432,14.3668429 L15.5141432,13.7083063 L14.8550523,13.7083063 Z M9.74446136,13.7083063 L9.74446136,13.0497697 L9.08537045,13.0497697 L9.08537045,13.7083063 L9.74446136,13.7083063 Z M9.74446136,14.8430307 L9.08537045,14.8430307 L9.08537045,15.5015673 L9.74446136,15.5015673 L9.74446136,14.8430307 Z M15.9907318,14.8430307 L15.9907318,15.5015673 L16.6498227,15.5015673 L16.6498227,14.8430307 L15.9907318,14.8430307 Z M15.9907318,4.63052437 L16.6498227,4.63052437 L16.6498227,3.97198778 L15.9907318,3.97198778 L15.9907318,4.63052437 Z M14.8550523,4.63052437 L14.8550523,3.97198778 L14.1959614,3.97198778 L14.1959614,4.63052437 L14.8550523,4.63052437 Z M22.7963068,1.51251827 L22.5739295,0.892585756 L21.6052636,1.23941656 L22.32565,1.97355315 L22.7963068,1.51251827 Z M23.6786977,2.41178949 L23.2081068,2.87282437 L23.4575727,3.12706559 L23.8070886,3.0577151 L23.6786977,2.41178949 Z M27.7995318,6.60855754 L27.1712205,6.40957412 L27.0514636,6.78703412 L27.3290068,7.06973071 L27.7995318,6.60855754 Z M28.6467273,7.47150388 L28.1762023,7.93267705 L28.8422795,8.61110144 L29.2441273,7.74973559 L28.6467273,7.47150388 Z M6.03084659,2.41178949 L5.90275886,3.05776778 L6.25212977,3.12692729 L6.50147045,2.87282437 L6.03084659,2.41178949 Z M6.91326386,1.51252485 L7.38386136,1.97355315 L8.10431364,1.23941656 L7.13560159,0.892586415 L6.91326386,1.51252485 Z M1.0628243,7.47209656 L0.465098045,7.74953802 L0.866399386,8.61255022 L1.53333545,7.93326973 L1.0628243,7.47209656 Z M1.91003886,6.60913046 L2.38055068,7.07025754 L2.65790273,6.78777827 L2.53842932,6.4104829 L1.91003886,6.60913046 Z M14.8550523,13.0497697 L9.74446136,13.0497697 L9.74446136,14.3668429 L14.8550523,14.3668429 L14.8550523,13.0497697 Z M9.08537045,13.7083063 L9.08537045,14.8430307 L10.4035523,14.8430307 L10.4035523,13.7083063 L9.08537045,13.7083063 Z M9.74446136,15.5015673 L15.9907318,15.5015673 L15.9907318,14.1844941 L9.74446136,14.1844941 L9.74446136,15.5015673 Z M16.6498227,14.8430307 L16.6498227,4.63052437 L15.3316409,4.63052437 L15.3316409,14.8430307 L16.6498227,14.8430307 Z M15.9907318,3.97198778 L14.8550523,3.97198778 L14.8550523,5.28906095 L15.9907318,5.28906095 L15.9907318,3.97198778 Z M14.1959614,4.63052437 L14.1959614,13.7083063 L15.5141432,13.7083063 L15.5141432,4.63052437 L14.1959614,4.63052437 Z M14.8550523,24.9637502 C8.63264091,24.9637502 3.58953432,19.9253527 3.58953432,13.7082405 L2.2713525,13.7082405 C2.2713525,20.652838 7.90474091,26.2808234 14.8550523,26.2808234 L14.8550523,24.9637502 Z M3.58953432,13.7082405 C3.58953432,7.49172095 8.63270682,2.45222363 14.8550523,2.45222363 L14.8550523,1.13515046 C7.904675,1.13515046 2.2713525,6.76433437 2.2713525,13.7082405 L3.58953432,13.7082405 Z M14.8550523,2.45222363 C21.0768705,2.45222363 26.1205636,7.49172095 26.1205636,13.7082405 L27.4387455,13.7082405 C27.4387455,6.76431461 21.8048364,1.13515046 14.8550523,1.13515046 L14.8550523,2.45222363 Z M26.1205636,13.7082405 C26.1205636,19.92476 21.0768705,24.9637502 14.8550523,24.9637502 L14.8550523,26.2808234 C21.8048364,26.2808234 27.4387455,20.6522453 27.4387455,13.7082405 L26.1205636,13.7082405 Z M14.8550523,-3.55271368e-15 C7.27774773,-3.55271368e-15 1.13567493,6.1381451 1.13567493,13.708438 L2.45385477,13.708438 C2.45385477,6.8654329 8.00584545,1.3170712 14.8550523,1.3170712 L14.8550523,-3.55271368e-15 Z M1.13567493,13.708438 C1.13567493,21.2787112 7.27774773,27.4162722 14.8550523,27.4162722 L14.8550523,26.099199 C8.00584545,26.099199 2.45385477,20.5513575 2.45385477,13.708438 L1.13567493,13.708438 Z M14.8550523,27.4162722 C22.4317636,27.4162722 28.574425,21.2787112 28.574425,13.708438 L27.2562432,13.708438 C27.2562432,20.5513575 21.7037318,26.099199 14.8550523,26.099199 L14.8550523,27.4162722 Z M28.574425,13.708438 C28.574425,6.13812534 22.4317636,-3.55271368e-15 14.8550523,-3.55271368e-15 L14.8550523,1.3170712 C21.7037318,1.3170712 27.2562432,6.86545266 27.2562432,13.708438 L28.574425,13.708438 Z M24.4220205,0.56860222 C23.7684659,0.56860222 23.1477341,0.687155268 22.5739295,0.892585756 L23.0186182,2.13245802 C23.4590227,1.97477802 23.9296795,1.88567802 24.4220205,1.88567802 L24.4220205,0.56860222 Z M22.32565,1.97355315 L23.2081068,2.87282437 L24.1493545,1.95075461 L23.2668977,1.05148998 L22.32565,1.97355315 Z M23.8070886,3.0577151 C24.0103523,3.01738632 24.2141432,2.99486437 24.4220205,2.99486437 L24.4220205,1.6777912 C24.1177182,1.6777912 23.8275205,1.71087607 23.5503727,1.76586388 L23.8070886,3.0577151 Z M24.4220205,2.99486437 C26.0515568,2.99486437 27.3028409,4.22718388 27.3028409,5.66389998 L28.6210227,5.66389998 C28.6210227,3.42525754 26.7026727,1.6777912 24.4220205,1.6777912 L24.4220205,2.99486437 Z M27.3028409,5.66389998 C27.3028409,5.9059451 27.2540682,6.14851705 27.1712205,6.40957412 L28.4277773,6.80754754 C28.5358023,6.46719607 28.6210227,6.08454022 28.6210227,5.66389998 L27.3028409,5.66389998 Z M27.3290068,7.06973071 L28.1762023,7.93267705 L29.1172523,7.01033071 L28.2700568,6.14740412 L27.3290068,7.06973071 Z M29.2441273,7.74973559 C29.5403886,7.1146429 29.7101045,6.40956095 29.7101045,5.66333363 L28.3919227,5.66333363 C28.3919227,6.20729144 28.2686727,6.72315607 28.0493273,7.19327217 L29.2441273,7.74973559 Z M29.7101045,5.66333363 C29.7101045,2.82415851 27.3162864,0.56860222 24.4220205,0.56860222 L24.4220205,1.88567802 C26.6405864,1.88567802 28.3919227,3.60277924 28.3919227,5.66333363 L29.7101045,5.66333363 Z M2.40729659,5.66390656 C2.40729659,4.22711802 3.65867295,2.99486437 5.28754364,2.99486437 L5.28754364,1.6777912 C3.00741205,1.6777912 1.08911477,3.42532339 1.08911477,5.66390656 L2.40729659,5.66390656 Z M5.28754364,2.99486437 C5.494775,2.99486437 5.698645,3.01736656 5.90275886,3.05776778 L6.15892773,1.76580461 C5.88151636,1.71089583 5.59137136,1.6777912 5.28754364,1.6777912 L5.28754364,2.99486437 Z M6.50147045,2.87282437 L7.38386136,1.97355315 L6.44264,1.05148998 L5.56021614,1.95075461 L6.50147045,2.87282437 Z M7.13560159,0.892586415 C6.56184318,0.687155268 5.94107182,0.56860222 5.28754364,0.56860222 L5.28754364,1.88567802 C5.7799175,1.88567802 6.25053477,1.97477802 6.69093273,2.13245802 L7.13560159,0.892586415 Z M5.28754364,0.56860222 C2.39313932,0.56860222 7.10542736e-15,2.82431656 7.10542736e-15,5.66390656 L1.31818182,5.66390656 C1.31818182,3.6026212 3.06912932,1.88567802 5.28754364,1.88567802 L5.28754364,0.56860222 Z M7.10542736e-15,5.66390656 C7.10542736e-15,6.41024583 0.169785114,7.1145112 0.465098045,7.74953802 L1.66055318,7.19458924 C1.44139886,6.72332729 1.31818182,6.20774583 1.31818182,5.66390656 L7.10542736e-15,5.66390656 Z M1.53333545,7.93326973 L2.38055068,7.07025754 L1.43952705,6.14797705 L0.592312477,7.01092339 L1.53333545,7.93326973 Z M2.53842932,6.4104829 C2.45576614,6.14942583 2.40729659,5.90657071 2.40729659,5.66390656 L1.08911477,5.66390656 C1.08911477,6.08391461 1.17351861,6.46629388 1.28164907,6.80777144 L2.53842932,6.4104829 Z" id="Shape" fill="#FFFFFF" fill-rule="nonzero" mask="url(#mask-2)"></path>
                </g>
            </g>
        </g>
    </g>
</svg>