<?xml version="1.0" encoding="UTF-8"?>
<svg width="18px" height="20px" viewBox="0 0 18 20" version="1.1" xmlns="http://www.w3.org/2000/svg" xmlns:xlink="http://www.w3.org/1999/xlink">
    <title>settingsIcon</title>
    <g id="Page-1" stroke="none" stroke-width="1" fill="none" fill-rule="evenodd">
        <g id="Artboard" transform="translate(-299.000000, -109.000000)" fill="#C7C7CC">
            <g id="settingsIcon" transform="translate(299.000000, 109.000000)">
                <path d="M10,6.5 C10,4.91449 11.0543,3.57521 12.5,3.14494 L12.5,1 C12.5,0.44772 12.9477,0 13.5,0 C14.0523,0 14.5,0.44772 14.5,1 L14.5,3.14494 C15.9457,3.57521 17,4.91449 17,6.5 C17,8.0855 15.9457,9.4248 14.5,9.8551 L14.5,19 C14.5,19.5523 14.0523,20 13.5,20 C12.9477,20 12.5,19.5523 12.5,19 L12.5,9.8551 C11.0543,9.4248 10,8.0855 10,6.5 Z M13.5,8 C12.6716,8 12,7.32843 12,6.5 C12,5.67157 12.6716,5 13.5,5 C14.3284,5 15,5.67157 15,6.5 C15,7.32843 14.3284,8 13.5,8 Z M2.5,10.1449 C1.05426,10.5752 0,11.9145 0,13.5 C0,15.0855 1.05426,16.4248 2.5,16.8551 L2.5,19 C2.5,19.5523 2.94771,20 3.5,20 C4.05229,20 4.5,19.5523 4.5,19 L4.5,16.8551 C5.94574,16.4248 7,15.0855 7,13.5 C7,11.9145 5.94574,10.5752 4.5,10.1449 L4.5,1 C4.5,0.44772 4.05229,0 3.5,0 C2.94771,0 2.5,0.44772 2.5,1 L2.5,10.1449 Z M2,13.5 C2,14.3284 2.67157,15 3.5,15 C4.32843,15 5,14.3284 5,13.5 C5,12.6716 4.32843,12 3.5,12 C2.67157,12 2,12.6716 2,13.5 Z" id="Shape"></path>
            </g>
        </g>
    </g>
</svg>